<?xml version="1.0" encoding="utf-8"?>
<!-- Generator: Adobe Illustrator 21.0.2, SVG Export Plug-In . SVG Version: 6.00 Build 0)  -->
<svg version="1.1" id="Layer_1" xmlns="http://www.w3.org/2000/svg" xmlns:xlink="http://www.w3.org/1999/xlink" x="0px" y="0px"
	 viewBox="0 0 157.875 72" style="enable-background:new 0 0 157.875 72;" xml:space="preserve">
<style type="text/css">
	path { fill: white; }
	.st0{fill:#B84B16;}
	.st1{fill:#005953;}
	.st2{fill:#B2BB1E;}
	.st3{fill:#C5A901;}
</style>
<path class="st0" d="M65.168,36.833c-0.59-0.083-11.144,5.924-11.144,5.924s16.957,3.53,41.629,10.93c0,0,4.92-6.963,8.341-10.791
	C103.993,42.896,89.724,40.234,65.168,36.833z"/>
<path class="st1" d="M45.615,36.124c8.344-1.439,17.01,0.235,17.01,0.235s-13.693,6.53-26.54,14.598c0,0-10.761-3.229-18.644-4.029
	C17.442,46.928,37.455,37.539,45.615,36.124z"/>
<path class="st2" d="M75.112,50.226c0,0,7.984,2.146,19.015,5.865c0,0-6.999,10.348-9.502,15.242c0,0-6.999-4.047-20.217-9.86
	C64.408,61.473,67.221,58.478,75.112,50.226z"/>
<path class="st3" d="M39.12,51.984c0,0,5.293-3.751,12.674-7.88c0,0,8.497,1.703,20.921,5.39L61.607,60.217
	c0,0-6.522-2.73-12.035-4.724C44.058,53.498,39.12,51.984,39.12,51.984z"/>
<path d="M39.358,35.612l-0.356,0.226l-8.613,0.176l-0.226-0.273l1.574-8.028l1.032-5.471l2.24-10.898l-7.805,16.148l-3.768,8.12
	l-0.361,0.226l-7.088,0.135l-0.307-0.274l-0.275-5.921l-0.852-18.433l-1.213,4.802l-1.838,7.352L8.586,35.612l-0.313,0.226
	c-3.366,0-4.309,0.046-7.406,0.176l-0.221-0.273l2.735-9.871l3.097-11.432l2.601-9.956L9.346,4.21c5.611,0,6.912,0,12.294-0.135
	l0.269,0.267l0.227,7.096l0.178,3.274l0.447,8.737l5.651-12.105c0.719-1.483,2.918-6.236,3.231-6.862l0.312-0.272
	c5.25,0,6.549,0,12.203-0.135l0.221,0.267l-1.703,10.052L40.705,26.5L39.358,35.612z"/>
<path d="M65.246,30.904c-1.165,1.806-2.34,2.738-3.822,3.557c0,0-0.097,0.052-0.269,0.108c-0.113,0.026-0.178,0.048-0.313,0.037
	c-3.67-0.544-5.311-0.549-6.98-0.582c-1.633-0.038-4.21-0.054-6.958,0.447c-0.092,0.006-0.178,0-0.264-0.026
	c-0.081-0.022-0.194-0.094-0.194-0.094c-2.315-1.641-3.541-4.137-3.541-7.888c0-3.596,1.299-7.934,3.724-10.856
	c3.18-3.725,7.4-4.263,10.359-4.263c3.05,0,5.341,0.714,6.371,1.297c4.436,2.336,4.436,7.449,4.436,8.524
	c0,1.617-0.132,3.186-0.488,4.706C66.809,27.851,66.006,29.729,65.246,30.904z M58.826,19.822c0-1.755-0.717-2.873-2.107-2.873
	c-1.749,0-2.647,1.881-2.867,2.285c-1.127,2.154-1.935,6.636-1.935,8.478c0,0.768,0,3.102,2.113,3.102
	c2.331,0,3.584-3.145,4.306-6.87C58.782,21.795,58.826,20.046,58.826,19.822z"/>
<path d="M66.898,33.729l1.622-5.654l0.396-0.137c0.722,0.811,2.603,3.01,6.149,3.01c1.391,0,3.137-0.453,3.137-1.843
	c0-1.207-1.073-1.744-2.779-2.604l-0.94-0.49c-2.064-1.123-4.485-2.471-4.485-6.187c0-2.022,0.803-3.951,2.194-5.474
	c1.617-1.749,4.398-3.005,8.656-3.005c3.638,0,5.568,0.803,7.989,1.833l0.224,0.41c-0.763,2.425-0.942,3.142-1.573,5.648
	l-0.447,0.089c-0.359-0.445-0.718-0.892-1.169-1.297c-1.03-0.854-2.687-1.436-4.119-1.436c-2.199,0-2.738,1.032-2.738,1.617
	c0,0.984,1.164,1.571,2.286,2.107l0.894,0.445c2.558,1.353,5.293,2.873,5.293,7.004c0,2.643-1.255,4.346-2.015,5.204
	c-3.005,3.358-7.492,3.452-9.422,3.452c-5.115,0-7.578-1.393-9.061-2.245L66.898,33.729z"/>
<path d="M114.407,20.628c-0.763,3.14-1.526,6.328-2.108,9.46c-0.357,1.797-0.671,3.641-0.94,5.481l-0.272,0.269l-8.298,0.176
	l-0.224-0.273l0.359-2.061c-1.795,1.794-4.216,2.692-6.729,2.692c-2.105,0-3.496-0.803-4.216-1.345
	c-2.961-2.248-3.052-6.101-3.052-7.486c0-5.476,2.648-9.473,4.618-11.394c4.355-4.263,9.961-4.312,14.138-4.357h8.518l0.273,0.358
	L114.407,20.628z M106.332,17.664c-1.387-0.04-3.231-0.086-4.847,1.264c-1.251,1.073-3.046,3.811-3.046,7.799
	c0,2.293,1.032,3.635,2.827,3.635c0.984,0,1.658-0.45,2.331-0.943L106.332,17.664z"/>
<path d="M125.579,27.131c-0.947,4.399-1.084,5.337-1.573,8.481l-0.267,0.226l-9.556,0.176l-0.181-0.315
	c1.526-5.697,1.797-6.678,3.006-12.065l0.447-1.887c0.943-4.301,1.078-5.155,1.526-8.742l0.312-0.364
	c4.533-0.582,5.608-0.758,9.642-1.526l0.276,0.324l-3.097,13.1L125.579,27.131z M129.699,8.067l-0.355,0.318l-8.834,1.302
	l-0.319-0.321l1.526-7.177l0.361-0.313l9.011-1.21l0.272,0.313L129.699,8.067z"/>
<path d="M146.885,28.705c-0.898,3.229-0.983,3.811-1.571,6.414l-0.361,0.313c-1.654,0.541-3.229,0.989-5.518,0.989
	c-7.53,0-11.214-4.487-11.214-11.041c0-6.683,4.667-14.035,14.226-14.035c4.171,0,6.007,1.167,7.128,1.833l0.097,0.366l-1.755,6.05
	l-0.449,0.051c-1.075-1.342-2.288-2.113-3.992-2.113c-3.051,0-5.924,2.825-5.924,7.584c0,2.511,1.213,4.972,4.577,4.972
	c2.155,0,3.411-0.892,4.304-1.561L146.885,28.705z"/>
<path d="M157.109,14.145c0,1.617-1.307,2.924-2.924,2.924c-1.616,0-2.927-1.307-2.927-2.924c0-1.617,1.31-2.927,2.927-2.927
	C155.802,11.218,157.109,12.528,157.109,14.145z M151.551,14.145c0,1.477,1.146,2.665,2.645,2.665c1.488,0,2.62-1.194,2.62-2.676
	c0-1.493-1.122-2.66-2.62-2.66C152.68,11.474,151.551,12.633,151.551,14.145z M153.12,12.415h1.303c0.78,0,1.123,0.326,1.123,0.954
	c0,0.563-0.402,0.835-0.886,0.916l1.025,1.587h-0.323l-1.041-1.593h-0.9v1.593h-0.3V12.415z M153.419,14.018h0.733
	c0.526,0,1.1-0.052,1.1-0.655c0-0.534-0.466-0.692-0.879-0.692h-0.954V14.018z"/>
</svg>
