<?xml version="1.0" encoding="UTF-8" ?><svg xmlns="http://www.w3.org/2000/svg" viewBox="0 0 305 385"><defs><style>.a{fill:#f1f2f2;}.b{fill:#737144;}.c{fill:#9db024;}.d{fill:#87a636;}.e{fill:#231f20;}</style></defs><title>7</title><rect class="a" width="305" height="385"/><path class="b" d="M224.28,129.24c0-24.74-26.07-22.64-26.07-22.64h0V35.93H169.53v70.94h-55l-.26,22.28,55.29-.1v25.51c0,25.47,28.67,22.75,28.67,22.75V129.24Z"/><path class="c" d="M124.35,40.37C115.16,45.23,110.77,53,108.8,60.53V36H80.39V106.6c0,21.8,28.41,22.54,28.41,22.54V79.56c.09-4,1.18-13.14,11.64-24.58,4.16-4.55,11.53-8.15,20.43-10,0,0-19.94,6.34-24.27,25.08,8.1-6.22,17.82-2,27.24-7.63,13.11-7.78,15.39-21.88,15.39-21.88-5.28-4.21-19.77-8.17-34.88-.19"/><path class="d" d="M30.68,234.8l11.43-21.54h7.24v21.83h3.31v5.45H49.35v7.15H42.94v-7.15H30.68ZM42.94,222h-.1l-6.71,13.08h6.81Z"/><path class="d" d="M54.46,213H67.39c5.74,0,9.24,3,9.24,8.95,0,4.62-1.84,7.73-5.78,8.56v.1c4.76.63,5.49,3.26,5.59,10.6,0,3.65.24,5.54,1.56,6.22v.3H70.41a6.82,6.82,0,0,1-.88-3.65l-.19-6.66c-.1-2.73-1.31-4.38-4.13-4.38H61.46v14.69h-7Zm7,15.18h2.92c3.35,0,5.25-1.46,5.25-5.21,0-3.21-1.7-4.81-4.86-4.81H61.46Z"/><path class="d" d="M99.39,213l8.46,23.78h.09V213h6.42v34.73h-8l-8.56-24.32h-.1v24.32H91.31V213Z"/><path class="d" d="M124.52,213v24.22c0,3.45.83,6,4.09,6s4.08-2.58,4.08-6V213h7v24.22c0,8.85-5.4,11.19-11.09,11.19s-11.09-1.9-11.09-11.19V213Z"/><path class="d" d="M163.42,213v5.74h-7.58v29h-7v-29h-7.58V213Z"/><path class="d" d="M165.17,213h12.94c5.73,0,9.24,3,9.24,8.95,0,4.62-1.85,7.73-5.79,8.56v.1c4.76.63,5.49,3.26,5.59,10.6,0,3.65.24,5.54,1.56,6.22v.3h-7.59a6.72,6.72,0,0,1-.87-3.65l-.2-6.66c-.1-2.73-1.31-4.38-4.13-4.38h-3.75v14.69h-7Zm7,15.18h2.92c3.36,0,5.25-1.46,5.25-5.21,0-3.21-1.7-4.81-4.86-4.81h-3.31Z"/><path class="d" d="M190.84,247.69V213h7v34.73Z"/><path class="d" d="M220.7,213v5.74H208.3v8.17H220v5.74H208.3V242h12.89v5.74H201.3V213Z"/><path class="d" d="M231.25,213l8.46,23.78h.1V213h6.42v34.73h-8l-8.56-24.32h-.09v24.32h-6.42V213Z"/><path class="d" d="M270.15,213v5.74h-7.59v29h-7v-29H248V213Z"/><path class="d" d="M37.45,275.08V276c0,3,.85,4.94,4.26,4.94A3.69,3.69,0,0,0,45.57,277c0-2.92-1.48-4-5.74-5.48-5.75-2-8.39-4.35-8.39-9.69,0-6.24,3.81-9.42,9.91-9.42,5.75,0,9.92,2.47,9.92,8.61v.9H45.08c0-3-1-4.76-3.5-4.76-2.92,0-3.68,1.84-3.68,3.73s.58,3.18,3.32,4.35l5,2.16c4.85,2.1,6.1,4.57,6.1,8.48,0,6.77-4.13,9.82-11.13,9.82-7.31,0-10.18-3.41-10.18-9.33v-1.3Z"/><path class="d" d="M73.17,253v5.3h-7v26.75H59.71V258.34h-7V253Z"/><path class="d" d="M92.74,253v5.3H81.3v7.54H92.07v5.3H81.3v8.61H93.19v5.3H74.84V253Z"/><path class="d" d="M94,253h6.19l3.54,23.7h.09l3.77-23.7h6.2l3.77,23.7h.09l3.54-23.7h6.19l-5.83,32h-7.22l-3.59-23.25h-.09L107,285.09H99.79Z"/><path class="d" d="M133.5,253h8l8.48,32h-6.73l-1.49-6.78h-8.52l-1.48,6.78H125Zm.85,20h6.28l-3.09-14.41h-.09Z"/><path class="d" d="M151.41,253h11.93c5.3,0,8.53,2.79,8.53,8.26,0,4.27-1.71,7.14-5.34,7.9v.09c4.4.58,5.07,3,5.16,9.78,0,3.37.22,5.12,1.44,5.75v.27h-7a6.28,6.28,0,0,1-.8-3.37l-.18-6.15c-.09-2.51-1.21-4-3.82-4h-3.45v13.56h-6.46Zm6.46,14h2.69c3.1,0,4.85-1.35,4.85-4.81,0-3-1.57-4.44-4.49-4.44h-3Z"/><path class="d" d="M175.19,253h10.59c9,0,10.6,6.15,10.6,15.58,0,11.35-2.43,16.47-11,16.47H175.19Zm6.47,27.29h2.87c4.49,0,5.38-2.83,5.38-11.53,0-7.27-.58-11-5.52-11h-2.73Z"/><path class="d" d="M204.46,275.08V276c0,3,.85,4.94,4.26,4.94a3.7,3.7,0,0,0,3.86-3.95c0-2.92-1.48-4-5.75-5.48-5.74-2-8.39-4.35-8.39-9.69,0-6.24,3.82-9.42,9.92-9.42,5.74,0,9.92,2.47,9.92,8.61v.9h-6.2c0-3-1-4.76-3.5-4.76-2.91,0-3.67,1.84-3.67,3.73s.58,3.18,3.32,4.35l5,2.16c4.84,2.1,6.1,4.57,6.1,8.48,0,6.77-4.13,9.82-11.13,9.82-7.31,0-10.19-3.41-10.19-9.33v-1.3Z"/><path class="d" d="M221.2,253h6.46V265.3h7.54V253h6.46v32H235.2V270.86h-7.54v14.23H221.2Z"/><path class="d" d="M244.94,285.09V253h6.46v32Z"/><path class="d" d="M254.68,253H266c6.55,0,8.8,4.81,8.8,9.61,0,6.64-4.09,9.65-10.19,9.65h-3.46v12.79h-6.46Zm6.46,14.5H264c2.56,0,4.31-1.53,4.31-4.8s-1.25-4.94-4.49-4.94h-2.69Z"/><path class="d" d="M32.24,290.45H43.55c6.55,0,8.8,4.8,8.8,9.6,0,6.64-4.09,9.65-10.19,9.65H38.71v12.79H32.24Zm6.47,14.49h2.87c2.56,0,4.31-1.52,4.31-4.8s-1.26-4.94-4.49-4.94H38.71Z"/><path class="d" d="M54.19,290.45H66.13c5.29,0,8.52,2.78,8.52,8.25,0,4.27-1.7,7.14-5.34,7.9v.09c4.4.59,5.08,3,5.16,9.79,0,3.36.23,5.11,1.44,5.74v.27h-7a6.29,6.29,0,0,1-.81-3.37L67.92,313c-.09-2.52-1.21-4-3.81-4H60.65v13.55H54.19Zm6.46,14h2.7c3.09,0,4.84-1.35,4.84-4.8,0-3-1.57-4.45-4.48-4.45H60.65Z"/><path class="d" d="M85.2,290.45h8l8.48,32H94.94l-1.48-6.78H84.93l-1.48,6.78H76.72Zm.86,20h6.28L89.24,296h-.09Z"/><path class="d" d="M115.9,301.26c0-4.66-.94-6.68-3.86-6.68-3.27,0-4,3.27-4,12.34,0,9.69,1.35,11.44,4.13,11.44,2.34,0,4-1.21,4-8.12h6.46c0,6.91-1.7,12.88-10.18,12.88-9.7,0-10.91-6.91-10.91-16.65s1.21-16.65,10.91-16.65c9.24,0,9.92,6.78,9.92,11.44Z"/><path class="d" d="M144,290.45v5.29h-7v26.75h-6.46V295.74h-7v-5.29Z"/><path class="d" d="M145.8,322.49v-32h6.46v32Z"/><path class="d" d="M169.27,301.26c0-4.66-.94-6.68-3.86-6.68-3.28,0-4,3.27-4,12.34,0,9.69,1.35,11.44,4.13,11.44,2.33,0,4-1.21,4-8.12H176c0,6.91-1.71,12.88-10.19,12.88-9.69,0-10.9-6.91-10.9-16.65s1.21-16.65,10.9-16.65c9.25,0,9.92,6.78,9.92,11.44Z"/><path class="d" d="M196.11,290.45v5.29H184.66v7.54h10.77v5.3H184.66v8.61h11.89v5.3H178.2v-32Z"/><path class="d" d="M204.19,312.48v.94c0,3,.85,4.94,4.26,4.94a3.7,3.7,0,0,0,3.86-3.95c0-2.92-1.48-4-5.74-5.47-5.75-2-8.4-4.36-8.4-9.7,0-6.23,3.82-9.42,9.92-9.42,5.74,0,9.92,2.47,9.92,8.62v.89h-6.19c0-3-1-4.75-3.5-4.75-2.92,0-3.68,1.84-3.68,3.72s.58,3.19,3.32,4.35l5,2.16c4.84,2.11,6.1,4.58,6.1,8.48,0,6.78-4.13,9.83-11.13,9.83-7.31,0-10.19-3.41-10.19-9.34v-1.3Z"/><path class="e" d="M44.46,204.39H42.12L40.3,197.1h0l-1.78,7.29H36.1l-2.83-10.71h2.35l1.7,7.29h0l1.86-7.29h2.2l1.83,7.38h0L45,193.68h2.31Z"/><path class="e" d="M48,193.68h8v2H50.35V198h5.19v1.83H50.35v2.62h5.78v2H48Z"/><path class="e" d="M57.3,193.68h2.13V196a2.43,2.43,0,0,1-2.13,2.52v-1a1.39,1.39,0,0,0,1-1.52h-1Z"/><path class="e" d="M66.21,204.39H63.55l-3.48-10.71H62.5l2.39,7.53h0l2.41-7.53h2.43Z"/><path class="e" d="M70.33,193.68h8v2H72.69V198h5.19v1.83H72.69v2.62h5.77v2H70.33Z"/><path class="e" d="M83.34,193.68h2.35v10.71H83.34Z"/><path class="e" d="M87.34,193.68h2.34l4.47,7.19h0v-7.19h2.21v10.71H94l-4.45-7.17h0v7.17H87.34Z"/><path class="e" d="M105.18,197.28a2.31,2.31,0,0,0-2.34-1.87c-2.12,0-2.91,1.8-2.91,3.67s.79,3.59,2.91,3.59a2.41,2.41,0,0,0,2.43-2.4h2.28a4.53,4.53,0,0,1-4.71,4.38c-3.32,0-5.27-2.48-5.27-5.57s2-5.65,5.27-5.65a4.35,4.35,0,0,1,4.62,3.85Z"/><path class="e" d="M108.7,193.68h5.78a2.94,2.94,0,0,1,3.13,3,2.63,2.63,0,0,1-1.69,2.68v0c1.15.3,1.48,1.43,1.56,2.51a5.77,5.77,0,0,0,.45,2.53h-2.36a12.12,12.12,0,0,1-.37-2.56c-.17-1.13-.6-1.62-1.79-1.62h-2.35v4.18H108.7Zm2.36,4.85h2.58c1,0,1.62-.45,1.62-1.53s-.57-1.49-1.62-1.49h-2.58Z"/><path class="e" d="M119.11,193.68h8v2h-5.65V198h5.19v1.83h-5.19v2.62h5.77v2h-8.13Z"/><path class="e" d="M131.65,193.68h2.42l4,10.71h-2.44l-.81-2.38h-4l-.84,2.38h-2.38Zm-.22,6.57h2.77l-1.35-3.93h0Z"/><path class="e" d="M140.13,200.84c0,1.42,1.11,2,2.37,2,.82,0,2.08-.24,2.08-1.34s-1.6-1.35-3.18-1.77-3.19-1-3.19-3c0-2.19,2.07-3.24,4-3.24,2.24,0,4.29,1,4.29,3.45h-2.28c-.07-1.29-1-1.62-2.11-1.62-.75,0-1.62.31-1.62,1.21s.51.93,3.19,1.62c.78.2,3.18.69,3.18,3.12,0,2-1.54,3.44-4.45,3.44-2.37,0-4.59-1.17-4.56-3.81Z"/><path class="e" d="M147.94,193.68h8v2H150.3V198h5.19v1.83H150.3v2.62h5.77v2h-8.13Z"/><path class="e" d="M157.35,193.68H162c2.77,0,4.86,1.74,4.86,5.3,0,3.1-1.59,5.41-4.86,5.41h-4.62Zm2.35,8.73h2.1c1.37,0,2.67-.84,2.67-3.21,0-2.16-.75-3.54-3.09-3.54H159.7Z"/><path class="e" d="M174.66,193.68h2.41l4,10.71h-2.45l-.81-2.38h-4l-.84,2.38h-2.39Zm-.23,6.57h2.78l-1.35-3.93h0Z"/><path class="e" d="M181.65,193.68h4.62c2.77,0,4.86,1.74,4.86,5.3,0,3.1-1.59,5.41-4.86,5.41h-4.62Zm2.35,8.73h2.1c1.37,0,2.67-.84,2.67-3.21,0-2.16-.75-3.54-3.09-3.54H184Z"/><path class="e" d="M197.13,193.43c3.31,0,5.26,2.47,5.26,5.65s-1.95,5.57-5.26,5.57-5.27-2.48-5.27-5.57S193.81,193.43,197.13,193.43Zm0,9.24c2.11,0,2.91-1.8,2.91-3.59s-.8-3.67-2.91-3.67-2.91,1.8-2.91,3.67S195,202.67,197.13,202.67Z"/><path class="e" d="M203.59,193.68h4.83c2.67,0,3.71,1.7,3.71,3.44s-1,3.43-3.71,3.43H206v3.84h-2.36Zm2.36,5h1.83c1.09,0,2.07-.24,2.07-1.6s-1-1.61-2.07-1.61H206Z"/><path class="e" d="M215.67,195.66h-3.21v-2h8.77v2H218v8.73h-2.35Z"/><path class="e" d="M222,193.68h2.36v10.71H222Z"/><path class="e" d="M230.76,193.43c3.31,0,5.26,2.47,5.26,5.65s-2,5.57-5.26,5.57-5.27-2.48-5.27-5.57S227.44,193.43,230.76,193.43Zm0,9.24c2.11,0,2.91-1.8,2.91-3.59s-.8-3.67-2.91-3.67-2.91,1.8-2.91,3.67S228.64,202.67,230.76,202.67Z"/><path class="e" d="M237.22,193.68h2.34l4.47,7.19h0v-7.19h2.21v10.71h-2.36l-4.45-7.17h0v7.17h-2.21Z"/><path class="e" d="M256.42,193.43c3.32,0,5.27,2.47,5.27,5.65s-1.95,5.57-5.27,5.57-5.26-2.48-5.26-5.57S253.11,193.43,256.42,193.43Zm0,9.24c2.12,0,2.91-1.8,2.91-3.59s-.79-3.67-2.91-3.67-2.91,1.8-2.91,3.67S254.31,202.67,256.42,202.67Z"/><path class="e" d="M262.89,193.68h7.53v2h-5.18v2.48h4.49V200h-4.49v4.42h-2.35Z"/><path class="e" d="M38.67,331.84c3.1,0,4.92,2.31,4.92,5.28s-1.82,5.19-4.92,5.19-4.92-2.31-4.92-5.19S35.58,331.84,38.67,331.84Zm0,8.62c2,0,2.72-1.68,2.72-3.34s-.74-3.43-2.72-3.43S36,335.37,36,337.12,36.7,340.46,38.67,340.46Z"/><path class="e" d="M44.7,332.08h2.19l4.17,6.7h0v-6.7h2.06v10H51l-4.16-6.7h0v6.7H44.7Z"/><path class="e" d="M62.61,334.79a1.4,1.4,0,0,0-1.32-1.22c-1.44,0-1.82,1.89-1.87,3l0,0a2.48,2.48,0,0,1,2.21-1.09,3.11,3.11,0,0,1,2.25,1,3.57,3.57,0,0,1-2.67,5.77c-3,0-3.77-2.59-3.77-5.07s1.07-5.12,3.85-5.12a3,3,0,0,1,3.18,2.71Zm-3,4a1.69,1.69,0,0,0,1.58,1.82,1.64,1.64,0,0,0,1.5-1.79c0-.92-.47-1.85-1.5-1.85A1.62,1.62,0,0,0,59.6,338.81Z"/><path class="e" d="M65.7,332.08h3.1L71.14,339h0l2.21-6.87h3.09v10h-2V335h0l-2.45,7.09h-1.7l-2.45-7h0v7H65.7Z"/><path class="e" d="M81.78,335.79h2.79v1.5H81.78v2.79h-1.5v-2.79H77.49v-1.5h2.79V333h1.5Z"/><path class="e" d="M92,332.08h2.26l3.74,10H95.68l-.75-2.23H91.19l-.79,2.23H88.18Zm-.21,6.13h2.59l-1.26-3.67h0Z"/><path class="e" d="M104.71,335.44a2.15,2.15,0,0,0-2.18-1.75c-2,0-2.72,1.68-2.72,3.43s.74,3.34,2.72,3.34a2.25,2.25,0,0,0,2.27-2.24h2.13a4.23,4.23,0,0,1-4.4,4.09c-3.1,0-4.92-2.31-4.92-5.19s1.82-5.28,4.92-5.28a4,4,0,0,1,4.31,3.6Z"/><path class="e" d="M108,332.08h5.4a2.74,2.74,0,0,1,2.92,2.75,2.46,2.46,0,0,1-1.58,2.51v0c1.08.28,1.39,1.33,1.46,2.34a5.48,5.48,0,0,0,.42,2.37h-2.2a10.74,10.74,0,0,1-.35-2.4c-.15-1.05-.56-1.51-1.67-1.51h-2.2v3.91H108Zm2.2,4.52h2.41c1,0,1.52-.42,1.52-1.43s-.54-1.39-1.52-1.39h-2.41Z"/><path class="e" d="M117.73,332.08h7.48v1.84h-5.28v2.15h4.85v1.71h-4.85v2.45h5.39v1.85h-7.59Z"/><path class="e" d="M128,338.76c0,1.33,1,1.85,2.21,1.85.77,0,2-.23,2-1.25s-1.5-1.26-3-1.65-3-1-3-2.85c0-2,1.93-3,3.74-3,2.08,0,4,.91,4,3.22h-2.13c-.06-1.21-.92-1.51-2-1.51-.7,0-1.51.29-1.51,1.13s.47.87,3,1.51c.73.18,3,.65,3,2.92,0,1.83-1.44,3.2-4.16,3.2-2.21,0-4.29-1.09-4.26-3.55Z"/><path class="e" d="M138.6,332.08h2.2v10h-2.2Z"/><path class="e" d="M142.36,332.08h2.18l4.18,6.7h0v-6.7h2.06v10h-2.2l-4.16-6.7h0v6.7h-2.06Z"/><path class="e" d="M155.8,332.08H158l4.18,6.7h0v-6.7h2.06v10H162l-4.16-6.7h0v6.7h-2Z"/><path class="e" d="M170.26,331.84c3.1,0,4.92,2.31,4.92,5.28s-1.82,5.19-4.92,5.19-4.92-2.31-4.92-5.19S167.17,331.84,170.26,331.84Zm0,8.62c2,0,2.72-1.68,2.72-3.34s-.74-3.43-2.72-3.43-2.72,1.68-2.72,3.43S168.29,340.46,170.26,340.46Z"/><path class="e" d="M176.29,332.08h5.39a2.74,2.74,0,0,1,2.93,2.75,2.46,2.46,0,0,1-1.58,2.51v0c1.08.28,1.39,1.33,1.46,2.34a5.34,5.34,0,0,0,.42,2.37h-2.2a10.74,10.74,0,0,1-.35-2.4c-.16-1.05-.56-1.51-1.67-1.51h-2.2v3.91h-2.2Zm2.2,4.52h2.41c1,0,1.51-.42,1.51-1.43s-.53-1.39-1.51-1.39h-2.41Z"/><path class="e" d="M188.17,333.92h-3v-1.84h8.19v1.84h-3v8.16h-2.19Z"/><path class="e" d="M194,332.08h2.2v3.83h4.05v-3.83h2.2v10h-2.2v-4.32h-4.05v4.32H194Z"/><path class="e" d="M210.21,332.08h2.26l3.74,10h-2.28l-.76-2.23h-3.74l-.78,2.23h-2.23Zm-.21,6.13h2.6l-1.27-3.67h0Z"/><path class="e" d="M216.74,332.08h3.09l2.34,6.87h0l2.21-6.87h3.1v10h-2.06V335h0L223,342.08h-1.69l-2.46-7h0v7h-2.06Z"/><path class="e" d="M229.09,332.08h7.48v1.84h-5.28v2.15h4.84v1.71h-4.84v2.45h5.39v1.85h-7.59Z"/><path class="e" d="M237.88,332.08h5.39a2.75,2.75,0,0,1,2.93,2.75,2.46,2.46,0,0,1-1.59,2.51v0c1.08.28,1.39,1.33,1.46,2.34a5.48,5.48,0,0,0,.42,2.37h-2.2a11.35,11.35,0,0,1-.35-2.4c-.15-1.05-.56-1.51-1.66-1.51h-2.2v3.91h-2.2Zm2.2,4.52h2.41c1,0,1.51-.42,1.51-1.43s-.53-1.39-1.51-1.39h-2.41Z"/><path class="e" d="M247.59,332.08h2.2v10h-2.2Z"/><path class="e" d="M258,335.44a2.15,2.15,0,0,0-2.19-1.75c-2,0-2.71,1.68-2.71,3.43s.74,3.34,2.71,3.34a2.25,2.25,0,0,0,2.27-2.24h2.13a4.22,4.22,0,0,1-4.4,4.09c-3.09,0-4.91-2.31-4.91-5.19s1.82-5.28,4.91-5.28a4.06,4.06,0,0,1,4.32,3.6Z"/><path class="e" d="M263.75,332.08H266l3.74,10h-2.29l-.75-2.23H263l-.79,2.23H260Zm-.21,6.13h2.59l-1.26-3.67h0Z"/></svg>