<?xml version="1.0" encoding="UTF-8" ?><svg xmlns="http://www.w3.org/2000/svg" viewBox="0 0 305 385"><defs><style>.a{fill:#faae17;}.b{fill:#fff;}.c{fill:none;stroke:#e47200;stroke-width:2px;}.d{fill:#e47200;}</style></defs><title>2</title><rect class="a" width="305" height="385"/><path class="b" d="M320.72,1708.39H345c10.8,0,17.38,5.67,17.38,16.83,0,8.69-3.47,14.54-10.88,16.1v.18c9,1.19,10.33,6.13,10.52,19.94.09,6.86.45,10.42,2.92,11.7v.55H350.71c-1.28-1.83-1.55-4.3-1.64-6.86l-.37-12.53c-.18-5.12-2.47-8.23-7.77-8.23h-7v27.62H320.72Zm13.17,28.54h5.48c6.31,0,9.88-2.75,9.88-9.79,0-6-3.2-9.06-9.14-9.06h-6.22Z" transform="translate(-243 -1536.21)"/><path class="b" d="M368.37,1773.69v-65.3h13.17v65.3Z" transform="translate(-243 -1536.21)"/><path class="b" d="M387.48,1708.39H424v10.79H400.65v15.37h22v10.79h-22v28.35H387.48Z" transform="translate(-243 -1536.21)"/><path class="b" d="M426.81,1708.39h24.33c10.79,0,17.37,5.67,17.37,16.83,0,8.69-3.47,14.54-10.88,16.1v.18c9,1.19,10.33,6.13,10.52,19.94.09,6.86.45,10.42,2.92,11.7v.55H456.81c-1.28-1.83-1.56-4.3-1.65-6.86l-.37-12.53c-.18-5.12-2.47-8.23-7.77-8.23h-7v27.62H426.81ZM440,1736.93h5.48c6.32,0,9.88-2.75,9.88-9.79,0-6-3.2-9.06-9.14-9.06H440Z" transform="translate(-243 -1536.21)"/><path class="b" d="M323,1586.53c0,1.83,1.42,2.54,3,2.54,1.06,0,2.67-.31,2.67-1.71s-2.05-1.73-4.07-2.27-4.09-1.33-4.09-3.9c0-2.8,2.65-4.15,5.13-4.15,2.86,0,5.49,1.25,5.49,4.42h-2.92c-.1-1.65-1.27-2.08-2.71-2.08-1,0-2.07.41-2.07,1.56s.65,1.19,4.09,2.08c1,.25,4.07.88,4.07,4,0,2.52-2,4.4-5.7,4.4-3,0-5.88-1.5-5.84-4.88Z" transform="translate(-243 -1536.21)"/><path class="b" d="M336.74,1577.37h3.09l5.13,13.71h-3.13l-1-3h-5.13l-1.07,3h-3.06Zm-.29,8.41H340l-1.72-5h0Z" transform="translate(-243 -1536.21)"/><path class="b" d="M345.86,1577.37h9.65v2.53h-6.63v3.17h5.74v2.35h-5.74v5.66h-3Z" transform="translate(-243 -1536.21)"/><path class="b" d="M356.73,1577.37H367v2.53h-7.24v2.94h6.65v2.35h-6.65v3.36h7.4v2.53H356.73Z" transform="translate(-243 -1536.21)"/><path class="b" d="M372,1579.9h-4.11v-2.53h11.24v2.53H375v11.18h-3Z" transform="translate(-243 -1536.21)"/><path class="b" d="M384.49,1585.74l-5.05-8.37h3.4l3.2,5.42,3.19-5.42h3.36l-5.09,8.45v5.26h-3Z" transform="translate(-243 -1536.21)"/><path class="b" d="M398.35,1577.37h7.4a3.77,3.77,0,0,1,4,3.78,3.38,3.38,0,0,1-2.17,3.44v0c1.47.38,1.9,1.82,2,3.21.06.86,0,2.48.58,3.24h-3a15.85,15.85,0,0,1-.48-3.28c-.21-1.44-.77-2.08-2.28-2.08h-3v5.36h-3Zm3,6.2h3.31c1.34,0,2.07-.57,2.07-2s-.73-1.9-2.07-1.9h-3.31Z" transform="translate(-243 -1536.21)"/><path class="b" d="M411.86,1577.37h10.26v2.53h-7.25v2.94h6.65v2.35h-6.65v3.36h7.4v2.53H411.86Z" transform="translate(-243 -1536.21)"/><path class="b" d="M433,1582a3,3,0,0,0-3-2.4c-2.71,0-3.73,2.3-3.73,4.7s1,4.59,3.73,4.59c1.85,0,2.88-1.26,3.11-3.07H436a5.79,5.79,0,0,1-6,5.61c-4.24,0-6.74-3.17-6.74-7.13s2.5-7.24,6.74-7.24c3,0,5.55,1.77,5.92,4.94Z" transform="translate(-243 -1536.21)"/><path class="b" d="M443.74,1577c4.25,0,6.75,3.17,6.75,7.24s-2.5,7.13-6.75,7.13-6.74-3.17-6.74-7.13S439.5,1577,443.74,1577Zm0,11.83c2.71,0,3.73-2.3,3.73-4.59s-1-4.7-3.73-4.7-3.72,2.3-3.72,4.7S441,1588.87,443.74,1588.87Z" transform="translate(-243 -1536.21)"/><path class="b" d="M452.17,1577.37h7.4a3.77,3.77,0,0,1,4,3.78,3.37,3.37,0,0,1-2.18,3.44v0c1.48.38,1.91,1.82,2,3.21.06.86,0,2.48.58,3.24h-3a15.85,15.85,0,0,1-.48-3.28c-.21-1.44-.77-2.08-2.28-2.08h-3v5.36h-3Zm3,6.2h3.3c1.35,0,2.08-.57,2.08-2s-.73-1.9-2.08-1.9h-3.3Z" transform="translate(-243 -1536.21)"/><path class="b" d="M465.68,1577.37h5.91c3.56,0,6.23,2.23,6.23,6.78,0,4-2,6.93-6.23,6.93h-5.91Zm3,11.18h2.69c1.75,0,3.42-1.08,3.42-4.11,0-2.77-1-4.54-4-4.54h-2.15Z" transform="translate(-243 -1536.21)"/><path class="b" d="M325.84,1789.34h3l4.88,13.08h-3l-1-2.92h-4.89l-1,2.92h-2.91Zm-.28,8H329l-1.65-4.8h0Z" transform="translate(-243 -1536.21)"/><path class="b" d="M347.39,1791.83c-2.69,2.35-4.15,7.16-4.19,10.59h-2.78a18.74,18.74,0,0,1,4.3-10.4h-6.08v-2.42h8.75Z" transform="translate(-243 -1536.21)"/><path class="b" d="M352.62,1789.34c2.56,0,4.72,1.61,4.72,6.61s-2.16,6.72-4.72,6.72-4.69-1.61-4.69-6.72S350.09,1789.34,352.62,1789.34Zm0,11.19c2.12,0,2.12-3.13,2.12-4.58s0-4.47-2.12-4.47-2.09,3.14-2.09,4.47S350.53,1800.53,352.62,1800.53Z" transform="translate(-243 -1536.21)"/><path class="b" d="M361.54,1789.34c2.27,0,3,1.69,3,3.7s-1,3.44-3.1,3.44-3-1.5-3-3.51S359.39,1789.34,361.54,1789.34Zm-.08,5.77c1.14,0,1.21-1.32,1.21-2.09s-.05-2.3-1.13-2.3-1.25,1.44-1.25,2.28S360.29,1795.11,361.46,1795.11Zm7.82-5.91h1.56l-7.55,13.62H361.7Zm1.7,6.33c2.27,0,3,1.59,3,3.61s-.95,3.53-3.1,3.53-3-1.59-3-3.6S368.84,1795.53,371,1795.53Zm-.07,5.77c1.14,0,1.21-1.43,1.21-2.2s-.06-2.2-1.14-2.2-1.24,1.34-1.24,2.18S369.74,1801.3,370.91,1801.3Z" transform="translate(-243 -1536.21)"/><path class="b" d="M381,1789.34h5.64c3.38,0,5.93,2.13,5.93,6.47,0,3.79-1.94,6.61-5.93,6.61H381Zm2.87,10.66h2.57c1.66,0,3.26-1,3.26-3.92,0-2.64-.92-4.32-3.78-4.32h-2.05Z" transform="translate(-243 -1536.21)"/><path class="b" d="M394.25,1789.34H404v2.42h-6.91v2.8h6.34v2.23h-6.34V1800h7.05v2.42h-9.92Z" transform="translate(-243 -1536.21)"/><path class="b" d="M414.4,1793.74a2.83,2.83,0,0,0-2.86-2.29c-2.58,0-3.55,2.2-3.55,4.48s1,4.38,3.55,4.38c1.76,0,2.75-1.21,3-2.93h2.78a5.53,5.53,0,0,1-5.75,5.35c-4.05,0-6.43-3-6.43-6.8s2.38-6.9,6.43-6.9c2.87,0,5.29,1.69,5.64,4.71Z" transform="translate(-243 -1536.21)"/><path class="b" d="M418.87,1789.34h7.05a3.59,3.59,0,0,1,3.82,3.61,3.22,3.22,0,0,1-2.06,3.28v0c1.4.37,1.81,1.74,1.9,3.06a7.14,7.14,0,0,0,.55,3.1h-2.88a14.65,14.65,0,0,1-.45-3.13c-.21-1.38-.74-2-2.18-2h-2.88v5.11h-2.87Zm2.87,5.92h3.15c1.28,0,2-.55,2-1.87s-.7-1.81-2-1.81h-3.15Z" transform="translate(-243 -1536.21)"/><path class="b" d="M431.74,1789.34h9.78v2.42h-6.9v2.8H441v2.23h-6.33V1800h7.05v2.42h-9.93Z" transform="translate(-243 -1536.21)"/><path class="b" d="M447.2,1789.34h2.95l4.89,13.08h-3l-1-2.92h-4.89l-1,2.92h-2.91Zm-.27,8h3.38l-1.64-4.8h0Z" transform="translate(-243 -1536.21)"/><path class="b" d="M457.72,1798.08c0,1.74,1.35,2.41,2.89,2.41,1,0,2.54-.29,2.54-1.63s-1.95-1.64-3.88-2.16-3.9-1.26-3.9-3.71c0-2.68,2.53-4,4.89-4,2.73,0,5.24,1.19,5.24,4.21h-2.79c-.09-1.57-1.2-2-2.58-2-.91,0-2,.39-2,1.49s.62,1.13,3.9,2c.95.23,3.88.84,3.88,3.8,0,2.4-1.89,4.2-5.44,4.2-2.89,0-5.6-1.43-5.57-4.65Z" transform="translate(-243 -1536.21)"/><path class="b" d="M467.42,1789.34h9.78v2.42h-6.9v2.8h6.33v2.23H470.3V1800h7.05v2.42h-9.93Z" transform="translate(-243 -1536.21)"/><path class="b" d="M353.92,1816.39c0,1.74,1.35,2.42,2.89,2.42,1,0,2.55-.29,2.55-1.63s-2-1.65-3.89-2.16-3.9-1.26-3.9-3.72c0-2.67,2.53-4,4.89-4,2.73,0,5.24,1.19,5.24,4.21h-2.78c-.09-1.58-1.21-2-2.58-2-.92,0-2,.39-2,1.48s.62,1.14,3.9,2c.95.24,3.88.84,3.88,3.81,0,2.4-1.89,4.19-5.44,4.19-2.89,0-5.6-1.42-5.56-4.65Z" transform="translate(-243 -1536.21)"/><path class="b" d="M363.64,1807.66h2.88v13.07h-2.88Z" transform="translate(-243 -1536.21)"/><path class="b" d="M368.72,1807.66h2.86l5.45,8.77h0v-8.77h2.69v13.07h-2.88l-5.43-8.75h0v8.75h-2.69Z" transform="translate(-243 -1536.21)"/><path class="b" d="M390.66,1812.05a2.83,2.83,0,0,0-2.86-2.29c-2.58,0-3.55,2.2-3.55,4.49s1,4.38,3.55,4.38c1.76,0,2.75-1.21,3-2.93h2.78a5.51,5.51,0,0,1-5.75,5.34c-4,0-6.42-3-6.42-6.79s2.38-6.9,6.42-6.9c2.88,0,5.29,1.68,5.64,4.7Z" transform="translate(-243 -1536.21)"/><path class="b" d="M395.13,1807.66h9.78v2.42H398v2.8h6.33v2.23H398v3.21h7.05v2.41h-9.93Z" transform="translate(-243 -1536.21)"/><path class="b" d="M410.79,1812.84c-.09-2.93,1.58-5.18,4.65-5.18,2.35,0,4.4,1.5,4.4,4a4.51,4.51,0,0,1-2.29,3.88c-1.26.9-2.77,1.63-3.7,3h6.06v2.23H410.5c0-3,1.83-4.23,4.05-5.73,1.13-.77,2.67-1.56,2.69-3.13a1.86,1.86,0,0,0-1.93-2c-1.53,0-2,1.6-2,2.95Z" transform="translate(-243 -1536.21)"/><path class="b" d="M425.37,1807.66c2.56,0,4.72,1.61,4.72,6.61s-2.16,6.72-4.72,6.72-4.69-1.61-4.69-6.72S422.84,1807.66,425.37,1807.66Zm0,11.19c2.12,0,2.12-3.13,2.12-4.58s0-4.47-2.12-4.47-2.09,3.13-2.09,4.47S423.28,1818.85,425.37,1818.85Z" transform="translate(-243 -1536.21)"/><path class="b" d="M437,1820.73h-2.6v-8.31h-3.23v-2c1.82,0,3.48-.59,3.76-2.54H437Z" transform="translate(-243 -1536.21)"/><path class="b" d="M445.3,1820.73h-2.6v-8.31h-3.22v-2c1.81,0,3.47-.59,3.75-2.54h2.07Z" transform="translate(-243 -1536.21)"/><path class="b" d="M340.73,1681v21.58H322.47V1681Z" transform="translate(-243 -1536.21)"/><path class="b" d="M402.3,1622H366.19l-2.08,22.27h.28c3.74-5.12,9.55-7.33,18-7.33,18.81,0,23.93,15.77,23.93,31.27,0,21.44-6.22,36.25-31.4,36.25-24.91,0-28.92-16.33-28.92-27.26v-2.63h19.09c0,6.5,1.11,16.05,9.69,16.05,8,0,11.62-6.36,11.62-19.09,0-16.19-2.49-20.76-11.48-20.76-5.68,0-8.72,3.46-9.41,9H347.65l3.6-53.27H402.3Z" transform="translate(-243 -1536.21)"/><path class="b" d="M440.07,1604.61c23.66,0,30.71,12.86,30.71,47.59,0,27.25-1.52,52.3-30.71,52.3-23.66,0-30.71-12.87-30.71-47.6C409.36,1629.79,410.88,1604.61,440.07,1604.61Zm-10.79,56.58c0,24.63,2.21,30.3,10.79,30.3s10.79-7.75,10.79-32.93v-10.65c0-24.63-2.21-30.3-10.79-30.3s-10.79,7.75-10.79,32.93Z" transform="translate(-243 -1536.21)"/><line class="c" x1="77" y1="245.95" x2="235" y2="245.95"/><line class="c" x1="77" y1="61.51" x2="235" y2="61.51"/><path class="d" d="M344.93,1827.75a1.3,1.3,0,0,0-1.2.81A1.28,1.28,0,0,0,344,1830l53.85,53.85a1.31,1.31,0,0,0,.92.39,1.26,1.26,0,0,0,.91-.39L453.51,1830a1.31,1.31,0,0,0-.92-2.25Z" transform="translate(-243 -1536.21)"/></svg>