<?xml version="1.0" encoding="UTF-8" ?><svg xmlns="http://www.w3.org/2000/svg" viewBox="0 0 465 385"><defs><style>.a{fill:#87a636;}.b{fill:#fff;}.c{fill:#3a7634;}</style></defs><title>5</title><rect class="a" width="465" height="385"/><path class="b" d="M63.05,228.78h2.28v10.35H63.05Z"/><path class="b" d="M67.09,228.78h2.26l4.32,6.94h0v-6.94h2.13v10.35H73.55l-4.3-6.93h0v6.93H67.09Z"/><path class="b" d="M81.31,228.78H86c2.58,0,3.58,1.64,3.58,3.32s-1,3.32-3.58,3.32H83.59v3.71H81.31Zm2.28,4.87h1.77c1,0,2-.23,2-1.55s-1-1.55-2-1.55H83.59Z"/><path class="b" d="M90.52,228.78h2.27v4H97v-4h2.28v10.35H97v-4.46H92.79v4.46H90.52Z"/><path class="b" d="M105.64,228.53c3.2,0,5.09,2.39,5.09,5.47s-1.89,5.38-5.09,5.38-5.09-2.4-5.09-5.38S102.44,228.53,105.64,228.53Zm0,8.93c2,0,2.81-1.74,2.81-3.46s-.77-3.55-2.81-3.55-2.81,1.74-2.81,3.55S103.6,237.46,105.64,237.46Z"/><path class="b" d="M113.54,235.69c0,1.38,1.08,1.92,2.29,1.92.8,0,2-.23,2-1.29s-1.55-1.31-3.07-1.71-3.09-1-3.09-3c0-2.11,2-3.13,3.87-3.13,2.16,0,4.14.95,4.14,3.34h-2.2c-.07-1.25-1-1.57-2-1.57-.73,0-1.57.31-1.57,1.18s.49.9,3.09,1.56c.75.19,3.07.67,3.07,3,0,1.9-1.49,3.32-4.3,3.32-2.29,0-4.44-1.13-4.41-3.69Z"/><path class="b" d="M121.24,228.78h4.67c2.58,0,3.58,1.64,3.58,3.32s-1,3.32-3.58,3.32h-2.39v3.71h-2.28Zm2.28,4.87h1.77c1.06,0,2-.23,2-1.55s-.94-1.55-2-1.55h-1.77Z"/><path class="b" d="M130.45,228.78h2.28v4h4.19v-4h2.27v10.35h-2.27v-4.46h-4.19v4.46h-2.28Z"/><path class="b" d="M143.83,228.78h2.34L150,239.13h-2.37l-.78-2.3H143l-.81,2.3H139.9Zm-.21,6.35h2.68l-1.31-3.8h0Z"/><path class="b" d="M151.9,230.69h-3.11v-1.91h8.48v1.91h-3.1v8.44H151.9Z"/><path class="b" d="M158.12,228.78h7.74v1.91h-5.47v2.22h5v1.77h-5v2.54H166v1.91h-7.85Z"/><path class="b" d="M168.85,235.69c0,1.38,1.07,1.92,2.29,1.92.79,0,2-.23,2-1.29s-1.55-1.31-3.07-1.71-3.09-1-3.09-3c0-2.11,2-3.13,3.87-3.13,2.16,0,4.15.95,4.15,3.34H172.8c-.07-1.25-1-1.57-2-1.57-.73,0-1.57.31-1.57,1.18s.5.9,3.09,1.56c.75.19,3.07.67,3.07,3,0,1.9-1.49,3.32-4.3,3.32-2.29,0-4.44-1.13-4.41-3.69Z"/><path class="b" d="M183,228.78h2.33l3.87,10.35h-2.36l-.78-2.3h-3.87l-.82,2.3h-2.3Zm-.22,6.35h2.68l-1.3-3.8h0Z"/><path class="b" d="M196.34,232.26a2.24,2.24,0,0,0-2.27-1.81c-2,0-2.81,1.74-2.81,3.55s.77,3.46,2.81,3.46a2.32,2.32,0,0,0,2.35-2.32h2.21a4.39,4.39,0,0,1-4.56,4.24c-3.2,0-5.08-2.4-5.08-5.38s1.88-5.47,5.08-5.47a4.21,4.21,0,0,1,4.47,3.73Z"/><path class="b" d="M199.9,228.78h5.59a2.84,2.84,0,0,1,3,2.86,2.54,2.54,0,0,1-1.63,2.59v0c1.11.29,1.43,1.38,1.5,2.42a5.7,5.7,0,0,0,.44,2.45h-2.28a12,12,0,0,1-.36-2.48c-.16-1.09-.58-1.56-1.72-1.56h-2.28v4H199.9Zm2.28,4.68h2.49c1,0,1.57-.43,1.57-1.48s-.55-1.43-1.57-1.43h-2.49Z"/><path class="b" d="M210.11,228.78h7.74v1.91h-5.46v2.22h5v1.77h-5v2.54H218v1.91h-7.86Z"/><path class="b" d="M218.9,234.29h4.36v1.77H218.9Z"/><path class="b" d="M224.86,228.78h7.28v1.91h-5v2.39h4.34v1.77h-4.34v4.28h-2.27Z"/><path class="b" d="M237.57,228.53c3.21,0,5.09,2.39,5.09,5.47s-1.88,5.38-5.09,5.38-5.08-2.4-5.08-5.38S234.37,228.53,237.57,228.53Zm0,8.93c2.05,0,2.82-1.74,2.82-3.46s-.77-3.55-2.82-3.55-2.81,1.74-2.81,3.55S235.53,237.46,237.57,237.46Z"/><path class="b" d="M244,228.78h5.58a2.84,2.84,0,0,1,3,2.86,2.54,2.54,0,0,1-1.64,2.59v0c1.12.29,1.44,1.38,1.51,2.42a5.69,5.69,0,0,0,.43,2.45h-2.27a10.8,10.8,0,0,1-.36-2.48c-.16-1.09-.58-1.56-1.73-1.56h-2.27v4H244Zm2.28,4.68h2.49c1,0,1.56-.43,1.56-1.48s-.55-1.43-1.56-1.43h-2.49Z"/><path class="b" d="M253.79,234.29h4.36v1.77h-4.36Z"/><path class="b" d="M262.34,228.78h2.33l3.87,10.35h-2.36l-.78-2.3h-3.87l-.81,2.3h-2.31Zm-.22,6.35h2.68l-1.3-3.8h0Z"/><path class="b" d="M275.68,232.26a2.24,2.24,0,0,0-2.26-1.81c-2.05,0-2.81,1.74-2.81,3.55s.76,3.46,2.81,3.46a2.33,2.33,0,0,0,2.35-2.32H278a4.38,4.38,0,0,1-4.55,4.24c-3.21,0-5.09-2.4-5.09-5.38s1.88-5.47,5.09-5.47a4.2,4.2,0,0,1,4.46,3.73Z"/><path class="b" d="M279.25,228.78h5.58a2.85,2.85,0,0,1,3,2.86,2.54,2.54,0,0,1-1.64,2.59v0c1.12.29,1.44,1.38,1.51,2.42a5.69,5.69,0,0,0,.43,2.45h-2.27a10.8,10.8,0,0,1-.36-2.48c-.16-1.09-.58-1.56-1.73-1.56h-2.28v4h-2.27Zm2.27,4.68H284c1,0,1.56-.43,1.56-1.48s-.55-1.43-1.56-1.43h-2.5Z"/><path class="b" d="M289.46,228.78h7.74v1.91h-5.47v2.22h5v1.77h-5v2.54h5.58v1.91h-7.85Z"/><path class="b" d="M302.32,228.78h5.58a2.85,2.85,0,0,1,3,2.86,2.54,2.54,0,0,1-1.64,2.59v0c1.12.29,1.44,1.38,1.51,2.42a5.69,5.69,0,0,0,.43,2.45H309a11.35,11.35,0,0,1-.37-2.48c-.16-1.09-.58-1.56-1.72-1.56h-2.28v4h-2.27Zm2.27,4.68h2.5c1,0,1.56-.43,1.56-1.48s-.55-1.43-1.56-1.43h-2.5Z"/><path class="b" d="M312.52,228.78h7.75v1.91H314.8v2.22h5v1.77h-5v2.54h5.58v1.91h-7.86Z"/><path class="b" d="M328.49,232.26a2.24,2.24,0,0,0-2.26-1.81c-2.05,0-2.82,1.74-2.82,3.55s.77,3.46,2.82,3.46a2.32,2.32,0,0,0,2.34-2.32h2.21a4.38,4.38,0,0,1-4.55,4.24c-3.21,0-5.09-2.4-5.09-5.38s1.88-5.47,5.09-5.47a4.2,4.2,0,0,1,4.46,3.73Z"/><path class="b" d="M332.06,228.78h2.27v8.44h5.05v1.91h-7.32Z"/><path class="b" d="M343.64,228.78H346l3.87,10.35h-2.36l-.78-2.3h-3.87l-.81,2.3h-2.31Zm-.22,6.35h2.68l-1.3-3.8h0Z"/><path class="b" d="M350.54,228.78h3.21l2.42,7.12h0l2.29-7.12h3.2v10.35h-2.13v-7.34h0L357,239.13h-1.75l-2.54-7.26h0v7.26h-2.13Z"/><path class="b" d="M366.33,228.78h2.34l3.87,10.35h-2.37l-.78-2.3h-3.87l-.81,2.3H362.4Zm-.21,6.35h2.68l-1.31-3.8h0Z"/><path class="b" d="M374.4,230.69h-3.11v-1.91h8.48v1.91h-3.1v8.44H374.4Z"/><path class="b" d="M380.62,228.78h2.27v10.35h-2.27Z"/><path class="b" d="M389.27,228.53c3.21,0,5.09,2.39,5.09,5.47s-1.88,5.38-5.09,5.38-5.09-2.4-5.09-5.38S386.07,228.53,389.27,228.53Zm0,8.93c2.05,0,2.81-1.74,2.81-3.46s-.76-3.55-2.81-3.55-2.81,1.74-2.81,3.55S387.23,237.46,389.27,237.46Z"/><path class="b" d="M395.67,228.78h2.26l4.32,6.94h0v-6.94h2.13v10.35h-2.28l-4.3-6.93h0v6.93h-2.13Z"/><path class="b" d="M83.21,175.21V182h-9v34.26H66V182H57v-6.79Z"/><path class="b" d="M85.17,175.21h15.29c6.79,0,10.93,3.57,10.93,10.58,0,5.46-2.19,9.14-6.84,10.12V196c5.63.74,6.49,3.85,6.61,12.53,0,4.31.29,6.55,1.84,7.36v.34h-9a8,8,0,0,1-1-4.31l-.23-7.88c-.11-3.21-1.55-5.17-4.88-5.17H93.45v17.36H85.17Zm8.28,17.94H96.9c4,0,6.21-1.72,6.21-6.15,0-3.8-2-5.69-5.75-5.69H93.45Z"/><path class="b" d="M138.12,175.21V182H123.46v9.66h13.8v6.78h-13.8v11H138.7v6.78H115.18v-41Z"/><path class="b" d="M163.88,175.21V182H149.22v9.66H163v6.78h-13.8v11h15.24v6.78H140.94v-41Z"/><path class="b" d="M174,203.44v1.21c0,3.85,1.09,6.32,5.46,6.32a4.73,4.73,0,0,0,4.95-5.06c0-3.73-1.9-5.11-7.36-7-7.36-2.53-10.75-5.58-10.75-12.42,0-8,4.88-12.07,12.7-12.07,7.36,0,12.71,3.16,12.71,11v1.15h-7.93c0-3.86-1.33-6.1-4.49-6.1-3.74,0-4.71,2.36-4.71,4.77s.74,4.09,4.25,5.58l6.38,2.76c6.21,2.7,7.82,5.86,7.82,10.87,0,8.68-5.29,12.59-14.26,12.59-9.37,0-13.05-4.37-13.05-12v-1.67Z"/><path class="b" d="M208.73,175.21h14.49c8.39,0,11.27,6.15,11.27,12.31,0,8.51-5.23,12.36-13.05,12.36H217v16.38h-8.28ZM217,193.78h3.68c3.28,0,5.52-1.95,5.52-6.15,0-4-1.61-6.32-5.75-6.32H217Z"/><path class="b" d="M236.67,216.26v-41H245v34.27h14.67v6.78Z"/><path class="b" d="M271.17,175.21h10.24l10.86,41h-8.62l-1.9-8.68H270.83l-1.9,8.68h-8.62Zm1.1,25.59h8l-4-18.46h-.12Z"/><path class="b" d="M303.43,175.21l10,28.12h.12V175.21h7.59v41h-9.43l-10.12-28.74h-.12v28.74h-7.58v-41Z"/><path class="b" d="M349.31,175.21V182h-9v34.26h-8.28V182h-9v-6.79Z"/><path class="b" d="M374.15,175.21V182H359.49v9.66h13.8v6.78h-13.8v11h15.24v6.78H351.21v-41Z"/><path class="b" d="M377.14,175.21h13.57c11.5,0,13.57,7.88,13.57,19.95,0,14.55-3.11,21.1-14.09,21.1H377.14Zm8.28,35h3.68c5.75,0,6.9-3.62,6.9-14.78,0-9.31-.75-14.08-7.07-14.08h-3.51Z"/><path class="c" d="M128.63,127.23l-70.2,31.35V146.65l56-24.55-56-24.56V85.61L128.63,117Z"/><path class="b" d="M150.42,139.4c0,5.69,2.64,12.76,10.54,12.76,14.85,0,15.68-19.56,15.68-33.85l-.41-.28c-3.89,7.08-10.55,10.41-19.15,10.41-13.46,0-24.28-9.71-24.28-29.27,0-22.62,9.3-36.07,30.11-36.07,24.83,0,29.55,18.86,29.55,47,0,29.41-5.41,53.13-31.36,53.13-17.2,0-26.49-7.77-26.49-23.86Zm11.24-65.21c-9.71,0-13,9.58-13,21.09,0,13.6,4,21.23,13,21.23,11.51,0,13.59-10.13,13.59-21.92C175.25,83.21,171,74.19,161.66,74.19Z"/><path class="b" d="M227.7,63.1c18.86,0,29.41,11.93,29.41,50.08s-10.55,50.08-29.41,50.08-29.41-11.93-29.41-50.08S208.83,63.1,227.7,63.1Zm0,89.06c10.82,0,13.59-10.4,13.59-39s-2.77-39-13.59-39-13.6,10.41-13.6,39S216.88,152.16,227.7,152.16Z"/><path class="b" d="M292.63,63.1C311.49,63.1,322,75,322,113.18s-10.55,50.08-29.41,50.08-29.42-11.93-29.42-50.08S273.76,63.1,292.63,63.1Zm0,89.06c10.82,0,13.59-10.4,13.59-39s-2.77-39-13.59-39S279,84.6,279,113.18,281.8,152.16,292.63,152.16Z"/><path class="b" d="M331.2,63.44h15.63v42.63h.27l29.61-42.63h17.14L365.61,104.7l31.25,56.62H379.18l-23.72-44-8.63,12.34v31.67H331.2Z"/><path class="c" d="M91.29,288.52a14.39,14.39,0,0,0-5.54-11.06,9.62,9.62,0,0,0,.48-2.93c0-4-2.54-7.59-6.37-9.64-.24-4.91-3.53-8.8-7.56-8.8S65,260,64.73,264.89c-3.82,2.05-6.36,5.6-6.36,9.64a9.62,9.62,0,0,0,.48,2.93,14.37,14.37,0,0,0-5.55,11.06c0,7.85,7,14.34,16.15,15.48v15h5.69V304c9.14-1.14,16.15-7.62,16.15-15.48"/><path class="c" d="M132.47,288.52a14.39,14.39,0,0,0-5.54-11.06,9.61,9.61,0,0,0,.47-2.93c0-4-2.54-7.59-6.36-9.64-.24-4.91-3.53-8.8-7.56-8.8s-7.33,3.89-7.57,8.8c-3.83,2.05-6.36,5.6-6.36,9.64a9.61,9.61,0,0,0,.47,2.93,14.39,14.39,0,0,0-5.54,11.06c0,7.85,7,14.34,16.15,15.48v15h5.69V304c9.14-1.14,16.15-7.62,16.15-15.48"/><path class="c" d="M172.3,288.52a14.37,14.37,0,0,0-5.55-11.06,9.62,9.62,0,0,0,.48-2.93c0-4-2.54-7.59-6.37-9.64-.24-4.91-3.53-8.8-7.56-8.8s-7.32,3.89-7.56,8.8c-3.83,2.05-6.37,5.6-6.37,9.64a9.62,9.62,0,0,0,.48,2.93,14.36,14.36,0,0,0-5.54,11.06c0,7.85,7,14.34,16.14,15.48v15h5.69V304c9.14-1.14,16.16-7.62,16.16-15.48"/><path class="c" d="M212.12,288.52a14.39,14.39,0,0,0-5.54-11.06,9.62,9.62,0,0,0,.48-2.93c0-4-2.54-7.59-6.37-9.64-.24-4.91-3.53-8.8-7.56-8.8s-7.32,3.89-7.57,8.8c-3.82,2.05-6.36,5.6-6.36,9.64a9.62,9.62,0,0,0,.48,2.93,14.37,14.37,0,0,0-5.55,11.06c0,7.85,7,14.34,16.15,15.48v15H196V304c9.14-1.14,16.15-7.62,16.15-15.48"/><path class="c" d="M252,288.52a14.39,14.39,0,0,0-5.54-11.06,9.61,9.61,0,0,0,.47-2.93c0-4-2.54-7.59-6.36-9.64-.24-4.91-3.53-8.8-7.56-8.8s-7.33,3.89-7.57,8.8c-3.83,2.05-6.36,5.6-6.36,9.64a9.61,9.61,0,0,0,.47,2.93A14.39,14.39,0,0,0,214,288.52c0,7.85,7,14.34,16.15,15.48v15h5.69V304c9.14-1.14,16.15-7.62,16.15-15.48"/><path class="c" d="M292.48,288.52a14.39,14.39,0,0,0-5.54-11.06,9.61,9.61,0,0,0,.47-2.93c0-4-2.53-7.59-6.36-9.64-.24-4.91-3.53-8.8-7.56-8.8s-7.33,3.89-7.57,8.8c-3.82,2.05-6.36,5.6-6.36,9.64a9.61,9.61,0,0,0,.47,2.93,14.39,14.39,0,0,0-5.54,11.06c0,7.85,7,14.34,16.15,15.48v15h5.69V304c9.14-1.14,16.15-7.62,16.15-15.48"/><path class="c" d="M333,288.52a14.39,14.39,0,0,0-5.54-11.06,9.61,9.61,0,0,0,.47-2.93c0-4-2.53-7.59-6.36-9.64-.24-4.91-3.53-8.8-7.56-8.8s-7.33,3.89-7.57,8.8c-3.82,2.05-6.36,5.6-6.36,9.64a9.62,9.62,0,0,0,.48,2.93A14.37,14.37,0,0,0,295,288.52c0,7.85,7,14.34,16.15,15.48v15h5.69V304C326,302.86,333,296.38,333,288.52"/><path class="c" d="M376.15,288.52a14.39,14.39,0,0,0-5.54-11.06,9.61,9.61,0,0,0,.47-2.93c0-4-2.54-7.59-6.36-9.64-.24-4.91-3.53-8.8-7.56-8.8s-7.33,3.89-7.57,8.8c-3.83,2.05-6.36,5.6-6.36,9.64a9.61,9.61,0,0,0,.47,2.93,14.39,14.39,0,0,0-5.54,11.06c0,7.85,7,14.34,16.15,15.48v15H360V304c9.14-1.14,16.15-7.62,16.15-15.48"/><path class="c" d="M415.92,288.52a14.37,14.37,0,0,0-5.55-11.06,9.62,9.62,0,0,0,.48-2.93c0-4-2.54-7.59-6.37-9.64-.24-4.91-3.53-8.8-7.56-8.8s-7.32,3.89-7.56,8.8c-3.83,2.05-6.37,5.6-6.37,9.64a9.62,9.62,0,0,0,.48,2.93,14.37,14.37,0,0,0-5.55,11.06c0,7.85,7,14.34,16.15,15.48v15h5.69V304c9.14-1.14,16.16-7.62,16.16-15.48"/></svg>